# Blender v2.72 (sub 0) OBJ File: ''
# www.blender.org
mtllib 0.mtl
o Text
v 0.567000 0.000000 0.050000
v 0.476000 0.201000 0.050000
v 0.186000 0.201000 0.050000
v 0.100000 0.000000 0.050000
v 0.000000 0.000000 0.050000
v 0.293000 0.686000 0.050000
v 0.362000 0.686000 0.050000
v 0.667000 0.000000 0.050000
v 0.436000 0.289000 0.050000
v 0.326000 0.536000 0.050000
v 0.224000 0.289000 0.050000
v 0.567000 -0.000000 -0.050000
v 0.476000 0.201000 -0.050000
v 0.186000 0.201000 -0.050000
v 0.100000 -0.000000 -0.050000
v 0.000000 -0.000000 -0.050000
v 0.293000 0.686000 -0.050000
v 0.362000 0.686000 -0.050000
v 0.667000 -0.000000 -0.050000
v 0.436000 0.289000 -0.050000
v 0.326000 0.536000 -0.050000
v 0.224000 0.289000 -0.050000
v 0.567000 -0.000000 -0.050000
v 0.567000 0.000000 0.050000
v 0.476000 0.201000 -0.050000
v 0.476000 0.201000 0.050000
v 0.186000 0.201000 -0.050000
v 0.186000 0.201000 0.050000
v 0.100000 -0.000000 -0.050000
v 0.100000 0.000000 0.050000
v 0.000000 -0.000000 -0.050000
v 0.000000 0.000000 0.050000
v 0.293000 0.686000 -0.050000
v 0.293000 0.686000 0.050000
v 0.362000 0.686000 -0.050000
v 0.362000 0.686000 0.050000
v 0.667000 -0.000000 -0.050000
v 0.667000 0.000000 0.050000
v 0.436000 0.289000 -0.050000
v 0.436000 0.289000 0.050000
v 0.326000 0.536000 -0.050000
v 0.326000 0.536000 0.050000
v 0.224000 0.289000 -0.050000
v 0.224000 0.289000 0.050000
vn 0.000000 0.000000 1.000000
vn 0.000000 -0.000000 -1.000000
vn -0.542000 -0.840400 0.000000
vn 0.550700 -0.834700 0.000000
vn -0.834500 -0.551000 0.000000
vn -0.551000 0.834500 0.000000
vn 0.544900 0.838500 0.000000
vn 0.838500 -0.544900 0.000000
vn -0.838700 0.544600 0.000000
vn 0.013700 -0.999900 0.000000
vn 0.831200 0.556000 0.000000
usemtl None
s off
f 5//1 7//1 6//1
f 5//1 10//1 7//1
f 10//1 8//1 7//1
f 5//1 11//1 10//1
f 9//1 8//1 10//1
f 5//1 3//1 11//1
f 3//1 9//1 11//1
f 3//1 2//1 9//1
f 2//1 8//1 9//1
f 5//1 4//1 3//1
f 1//1 8//1 2//1
f 18//2 16//2 17//2
f 21//2 16//2 18//2
f 19//2 21//2 18//2
f 22//2 16//2 21//2
f 19//2 20//2 21//2
f 14//2 16//2 22//2
f 20//2 14//2 22//2
f 13//2 14//2 20//2
f 19//2 13//2 20//2
f 15//2 16//2 14//2
f 19//2 12//2 13//2
s 1
f 24//3 26//3 25//3 23//3
f 26//3 28//4 27//4 25//3
f 28//4 30//4 29//4 27//4
f 30//4 32//5 31//5 29//4
f 32//5 34//6 33//6 31//5
f 34//6 36//7 35//7 33//6
f 36//7 38//8 37//8 35//7
f 38//8 24//3 23//3 37//8
f 40//9 42//10 41//10 39//9
f 42//10 44//11 43//11 41//10
f 44//11 40//9 39//9 43//11
