# Blender v2.72 (sub 0) OBJ File: ''
# www.blender.org
mtllib 10.mtl
o Text
v 0.520000 0.000000 0.050000
v 0.173000 0.337000 0.050000
v 0.173000 0.000000 0.050000
v 0.075000 0.000000 0.050000
v 0.075000 0.682000 0.050000
v 0.173000 0.682000 0.050000
v 0.173000 0.370000 0.050000
v 0.460000 0.682000 0.050000
v 0.582000 0.682000 0.050000
v 0.285000 0.359000 0.050000
v 0.655000 0.000000 0.050000
v 0.520000 -0.000000 -0.050000
v 0.173000 0.337000 -0.050000
v 0.173000 -0.000000 -0.050000
v 0.075000 -0.000000 -0.050000
v 0.075000 0.682000 -0.050000
v 0.173000 0.682000 -0.050000
v 0.173000 0.370000 -0.050000
v 0.460000 0.682000 -0.050000
v 0.582000 0.682000 -0.050000
v 0.285000 0.359000 -0.050000
v 0.655000 -0.000000 -0.050000
v 0.520000 -0.000000 -0.050000
v 0.520000 0.000000 0.050000
v 0.173000 0.337000 -0.050000
v 0.173000 0.337000 0.050000
v 0.173000 -0.000000 -0.050000
v 0.173000 0.000000 0.050000
v 0.075000 -0.000000 -0.050000
v 0.075000 0.000000 0.050000
v 0.075000 0.682000 -0.050000
v 0.075000 0.682000 0.050000
v 0.173000 0.682000 -0.050000
v 0.173000 0.682000 0.050000
v 0.173000 0.370000 -0.050000
v 0.173000 0.370000 0.050000
v 0.460000 0.682000 -0.050000
v 0.460000 0.682000 0.050000
v 0.582000 0.682000 -0.050000
v 0.582000 0.682000 0.050000
v 0.285000 0.359000 -0.050000
v 0.285000 0.359000 0.050000
v 0.655000 -0.000000 -0.050000
v 0.655000 0.000000 0.050000
vn 0.000000 0.000000 1.000000
vn 0.000000 -0.000000 -1.000000
vn -0.375900 -0.926700 0.000000
vn 0.389400 -0.921100 0.000000
vn 0.707100 -0.707100 0.000000
vn -0.707100 -0.707100 0.000000
vn -0.707100 0.707100 0.000000
vn 0.707100 0.707100 0.000000
vn 0.363300 0.931700 0.000000
vn -0.401900 0.915700 0.000000
vn 0.915700 0.402000 0.000000
vn 0.999600 0.028500 0.000000
vn 0.926700 -0.375700 0.000000
usemtl None
s off
f 4//1 6//1 5//1
f 4//1 7//1 6//1
f 7//1 9//1 8//1
f 7//1 10//1 9//1
f 4//1 2//1 7//1
f 2//1 10//1 7//1
f 2//1 11//1 10//1
f 4//1 3//1 2//1
f 1//1 11//1 2//1
f 17//2 15//2 16//2
f 18//2 15//2 17//2
f 20//2 18//2 19//2
f 21//2 18//2 20//2
f 13//2 15//2 18//2
f 21//2 13//2 18//2
f 22//2 13//2 21//2
f 14//2 15//2 13//2
f 22//2 12//2 13//2
s 1
f 24//3 26//4 25//4 23//3
f 26//4 28//5 27//5 25//4
f 28//5 30//6 29//6 27//5
f 30//6 32//7 31//7 29//6
f 32//7 34//8 33//8 31//7
f 34//8 36//9 35//9 33//8
f 36//9 38//10 37//10 35//9
f 38//10 40//11 39//11 37//10
f 40//11 42//12 41//12 39//11
f 42//12 44//13 43//13 41//12
f 44//13 24//3 23//3 43//13
