# Blender v2.72 (sub 0) OBJ File: ''
# www.blender.org
mtllib 14.mtl
o Text
v 0.465487 0.687742 0.050000
v 0.516310 0.678269 0.050000
v 0.563266 0.663031 0.050000
v 0.606148 0.642482 0.050000
v 0.644753 0.617071 0.050000
v 0.678875 0.587250 0.050000
v 0.708310 0.553471 0.050000
v 0.732852 0.516185 0.050000
v 0.752297 0.475844 0.050000
v 0.766440 0.432898 0.050000
v 0.775076 0.387800 0.050000
v 0.778000 0.341000 0.050000
v 0.775151 0.295461 0.050000
v 0.766708 0.251185 0.050000
v 0.752828 0.208688 0.050000
v 0.733667 0.168481 0.050000
v 0.709380 0.131081 0.050000
v 0.680125 0.097000 0.050000
v 0.646057 0.066752 0.050000
v 0.607333 0.040852 0.050000
v 0.564109 0.019813 0.050000
v 0.516542 0.004148 0.050000
v 0.464786 -0.005627 0.050000
v 0.409000 -0.009000 0.050000
v 0.354992 -0.005646 0.050000
v 0.304606 0.004079 0.050000
v 0.258047 0.019672 0.050000
v 0.215519 0.040630 0.050000
v 0.177226 0.066449 0.050000
v 0.143375 0.096625 0.050000
v 0.114170 0.130656 0.050000
v 0.089815 0.168037 0.050000
v 0.070516 0.208266 0.050000
v 0.056477 0.250838 0.050000
v 0.047903 0.295251 0.050000
v 0.045000 0.341000 0.050000
v 0.047981 0.387590 0.050000
v 0.056764 0.432551 0.050000
v 0.071109 0.475422 0.050000
v 0.090778 0.515741 0.050000
v 0.115530 0.553046 0.050000
v 0.145125 0.586875 0.050000
v 0.179325 0.616767 0.050000
v 0.217889 0.642259 0.050000
v 0.260578 0.662891 0.050000
v 0.307153 0.678199 0.050000
v 0.357373 0.687723 0.050000
v 0.411000 0.691000 0.050000
v 0.448375 0.083270 0.050000
v 0.483829 0.089912 0.050000
v 0.517109 0.100672 0.050000
v 0.547963 0.115296 0.050000
v 0.576136 0.133532 0.050000
v 0.601375 0.155125 0.050000
v 0.623427 0.179822 0.050000
v 0.642037 0.207370 0.050000
v 0.656953 0.237516 0.050000
v 0.667921 0.270005 0.050000
v 0.674688 0.304584 0.050000
v 0.677000 0.341000 0.050000
v 0.674688 0.377626 0.050000
v 0.667921 0.412343 0.050000
v 0.656953 0.444906 0.050000
v 0.642037 0.475074 0.050000
v 0.623426 0.502603 0.050000
v 0.601375 0.527250 0.050000
v 0.576136 0.548772 0.050000
v 0.547963 0.566926 0.050000
v 0.517109 0.581469 0.050000
v 0.483829 0.592157 0.050000
v 0.448374 0.598749 0.050000
v 0.411000 0.601000 0.050000
v 0.373855 0.598749 0.050000
v 0.338593 0.592157 0.050000
v 0.305469 0.581469 0.050000
v 0.274741 0.566926 0.050000
v 0.246666 0.548772 0.050000
v 0.221500 0.527250 0.050000
v 0.199501 0.502603 0.050000
v 0.180926 0.475074 0.050000
v 0.166031 0.444906 0.050000
v 0.155074 0.412343 0.050000
v 0.148311 0.377626 0.050000
v 0.146000 0.341000 0.050000
v 0.148311 0.304584 0.050000
v 0.155074 0.270005 0.050000
v 0.166031 0.237516 0.050000
v 0.180926 0.207370 0.050000
v 0.199501 0.179822 0.050000
v 0.221500 0.155125 0.050000
v 0.246666 0.133532 0.050000
v 0.274741 0.115296 0.050000
v 0.305469 0.100672 0.050000
v 0.338593 0.089912 0.050000
v 0.373855 0.083270 0.050000
v 0.411000 0.081000 0.050000
v 0.465487 0.687742 -0.050000
v 0.516310 0.678269 -0.050000
v 0.563266 0.663031 -0.050000
v 0.606148 0.642482 -0.050000
v 0.644753 0.617071 -0.050000
v 0.678875 0.587250 -0.050000
v 0.708310 0.553471 -0.050000
v 0.732852 0.516185 -0.050000
v 0.752297 0.475844 -0.050000
v 0.766440 0.432898 -0.050000
v 0.775076 0.387800 -0.050000
v 0.778000 0.341000 -0.050000
v 0.775151 0.295461 -0.050000
v 0.766708 0.251185 -0.050000
v 0.752828 0.208688 -0.050000
v 0.733667 0.168481 -0.050000
v 0.709380 0.131081 -0.050000
v 0.680125 0.097000 -0.050000
v 0.646057 0.066752 -0.050000
v 0.607333 0.040852 -0.050000
v 0.564109 0.019812 -0.050000
v 0.516542 0.004148 -0.050000
v 0.464786 -0.005627 -0.050000
v 0.409000 -0.009000 -0.050000
v 0.354992 -0.005646 -0.050000
v 0.304606 0.004079 -0.050000
v 0.258047 0.019672 -0.050000
v 0.215519 0.040630 -0.050000
v 0.177226 0.066448 -0.050000
v 0.143375 0.096625 -0.050000
v 0.114170 0.130656 -0.050000
v 0.089815 0.168037 -0.050000
v 0.070516 0.208266 -0.050000
v 0.056477 0.250838 -0.050000
v 0.047903 0.295251 -0.050000
v 0.045000 0.341000 -0.050000
v 0.047981 0.387590 -0.050000
v 0.056764 0.432551 -0.050000
v 0.071109 0.475422 -0.050000
v 0.090778 0.515741 -0.050000
v 0.115530 0.553046 -0.050000
v 0.145125 0.586875 -0.050000
v 0.179325 0.616767 -0.050000
v 0.217889 0.642259 -0.050000
v 0.260578 0.662891 -0.050000
v 0.307153 0.678199 -0.050000
v 0.357373 0.687723 -0.050000
v 0.411000 0.691000 -0.050000
v 0.448375 0.083270 -0.050000
v 0.483829 0.089912 -0.050000
v 0.517109 0.100672 -0.050000
v 0.547963 0.115296 -0.050000
v 0.576136 0.133532 -0.050000
v 0.601375 0.155125 -0.050000
v 0.623427 0.179822 -0.050000
v 0.642037 0.207370 -0.050000
v 0.656953 0.237516 -0.050000
v 0.667921 0.270005 -0.050000
v 0.674688 0.304584 -0.050000
v 0.677000 0.341000 -0.050000
v 0.674688 0.377626 -0.050000
v 0.667921 0.412343 -0.050000
v 0.656953 0.444906 -0.050000
v 0.642037 0.475074 -0.050000
v 0.623426 0.502603 -0.050000
v 0.601375 0.527250 -0.050000
v 0.576136 0.548772 -0.050000
v 0.547963 0.566926 -0.050000
v 0.517109 0.581469 -0.050000
v 0.483829 0.592157 -0.050000
v 0.448374 0.598749 -0.050000
v 0.411000 0.601000 -0.050000
v 0.373855 0.598749 -0.050000
v 0.338593 0.592157 -0.050000
v 0.305469 0.581469 -0.050000
v 0.274741 0.566926 -0.050000
v 0.246666 0.548772 -0.050000
v 0.221500 0.527250 -0.050000
v 0.199501 0.502603 -0.050000
v 0.180926 0.475074 -0.050000
v 0.166031 0.444906 -0.050000
v 0.155074 0.412343 -0.050000
v 0.148311 0.377626 -0.050000
v 0.146000 0.341000 -0.050000
v 0.148311 0.304584 -0.050000
v 0.155074 0.270005 -0.050000
v 0.166031 0.237516 -0.050000
v 0.180926 0.207370 -0.050000
v 0.199501 0.179822 -0.050000
v 0.221500 0.155125 -0.050000
v 0.246666 0.133532 -0.050000
v 0.274741 0.115296 -0.050000
v 0.305469 0.100672 -0.050000
v 0.338593 0.089912 -0.050000
v 0.373855 0.083270 -0.050000
v 0.411000 0.081000 -0.050000
v 0.465487 0.687742 -0.050000
v 0.465487 0.687742 0.050000
v 0.516310 0.678269 -0.050000
v 0.516310 0.678269 0.050000
v 0.563266 0.663031 -0.050000
v 0.563266 0.663031 0.050000
v 0.606148 0.642482 -0.050000
v 0.606148 0.642482 0.050000
v 0.644753 0.617071 -0.050000
v 0.644753 0.617071 0.050000
v 0.678875 0.587250 -0.050000
v 0.678875 0.587250 0.050000
v 0.708310 0.553471 -0.050000
v 0.708310 0.553471 0.050000
v 0.732852 0.516185 -0.050000
v 0.732852 0.516185 0.050000
v 0.752297 0.475844 -0.050000
v 0.752297 0.475844 0.050000
v 0.766440 0.432898 -0.050000
v 0.766440 0.432898 0.050000
v 0.775076 0.387800 -0.050000
v 0.775076 0.387800 0.050000
v 0.778000 0.341000 -0.050000
v 0.778000 0.341000 0.050000
v 0.775151 0.295461 -0.050000
v 0.775151 0.295461 0.050000
v 0.766708 0.251185 -0.050000
v 0.766708 0.251185 0.050000
v 0.752828 0.208688 -0.050000
v 0.752828 0.208688 0.050000
v 0.733667 0.168481 -0.050000
v 0.733667 0.168481 0.050000
v 0.709380 0.131081 -0.050000
v 0.709380 0.131081 0.050000
v 0.680125 0.097000 -0.050000
v 0.680125 0.097000 0.050000
v 0.646057 0.066752 -0.050000
v 0.646057 0.066752 0.050000
v 0.607333 0.040852 -0.050000
v 0.607333 0.040852 0.050000
v 0.564109 0.019812 -0.050000
v 0.564109 0.019813 0.050000
v 0.516542 0.004148 -0.050000
v 0.516542 0.004148 0.050000
v 0.464786 -0.005627 -0.050000
v 0.464786 -0.005627 0.050000
v 0.409000 -0.009000 -0.050000
v 0.409000 -0.009000 0.050000
v 0.354992 -0.005646 -0.050000
v 0.354992 -0.005646 0.050000
v 0.304606 0.004079 -0.050000
v 0.304606 0.004079 0.050000
v 0.258047 0.019672 -0.050000
v 0.258047 0.019672 0.050000
v 0.215519 0.040630 -0.050000
v 0.215519 0.040630 0.050000
v 0.177226 0.066448 -0.050000
v 0.177226 0.066449 0.050000
v 0.143375 0.096625 -0.050000
v 0.143375 0.096625 0.050000
v 0.114170 0.130656 -0.050000
v 0.114170 0.130656 0.050000
v 0.089815 0.168037 -0.050000
v 0.089815 0.168037 0.050000
v 0.070516 0.208266 -0.050000
v 0.070516 0.208266 0.050000
v 0.056477 0.250838 -0.050000
v 0.056477 0.250838 0.050000
v 0.047903 0.295251 -0.050000
v 0.047903 0.295251 0.050000
v 0.045000 0.341000 -0.050000
v 0.045000 0.341000 0.050000
v 0.047981 0.387590 -0.050000
v 0.047981 0.387590 0.050000
v 0.056764 0.432551 -0.050000
v 0.056764 0.432551 0.050000
v 0.071109 0.475422 -0.050000
v 0.071109 0.475422 0.050000
v 0.090778 0.515741 -0.050000
v 0.090778 0.515741 0.050000
v 0.115530 0.553046 -0.050000
v 0.115530 0.553046 0.050000
v 0.145125 0.586875 -0.050000
v 0.145125 0.586875 0.050000
v 0.179325 0.616767 -0.050000
v 0.179325 0.616767 0.050000
v 0.217889 0.642259 -0.050000
v 0.217889 0.642259 0.050000
v 0.260578 0.662891 -0.050000
v 0.260578 0.662891 0.050000
v 0.307153 0.678199 -0.050000
v 0.307153 0.678199 0.050000
v 0.357373 0.687723 -0.050000
v 0.357373 0.687723 0.050000
v 0.411000 0.691000 -0.050000
v 0.411000 0.691000 0.050000
v 0.448375 0.083270 -0.050000
v 0.448375 0.083270 0.050000
v 0.483829 0.089912 -0.050000
v 0.483829 0.089912 0.050000
v 0.517109 0.100672 -0.050000
v 0.517109 0.100672 0.050000
v 0.547963 0.115296 -0.050000
v 0.547963 0.115296 0.050000
v 0.576136 0.133532 -0.050000
v 0.576136 0.133532 0.050000
v 0.601375 0.155125 -0.050000
v 0.601375 0.155125 0.050000
v 0.623427 0.179822 -0.050000
v 0.623427 0.179822 0.050000
v 0.642037 0.207370 -0.050000
v 0.642037 0.207370 0.050000
v 0.656953 0.237516 -0.050000
v 0.656953 0.237516 0.050000
v 0.667921 0.270005 -0.050000
v 0.667921 0.270005 0.050000
v 0.674688 0.304584 -0.050000
v 0.674688 0.304584 0.050000
v 0.677000 0.341000 -0.050000
v 0.677000 0.341000 0.050000
v 0.674688 0.377626 -0.050000
v 0.674688 0.377626 0.050000
v 0.667921 0.412343 -0.050000
v 0.667921 0.412343 0.050000
v 0.656953 0.444906 -0.050000
v 0.656953 0.444906 0.050000
v 0.642037 0.475074 -0.050000
v 0.642037 0.475074 0.050000
v 0.623426 0.502603 -0.050000
v 0.623426 0.502603 0.050000
v 0.601375 0.527250 -0.050000
v 0.601375 0.527250 0.050000
v 0.576136 0.548772 -0.050000
v 0.576136 0.548772 0.050000
v 0.547963 0.566926 -0.050000
v 0.547963 0.566926 0.050000
v 0.517109 0.581469 -0.050000
v 0.517109 0.581469 0.050000
v 0.483829 0.592157 -0.050000
v 0.483829 0.592157 0.050000
v 0.448374 0.598749 -0.050000
v 0.448374 0.598749 0.050000
v 0.411000 0.601000 -0.050000
v 0.411000 0.601000 0.050000
v 0.373855 0.598749 -0.050000
v 0.373855 0.598749 0.050000
v 0.338593 0.592157 -0.050000
v 0.338593 0.592157 0.050000
v 0.305469 0.581469 -0.050000
v 0.305469 0.581469 0.050000
v 0.274741 0.566926 -0.050000
v 0.274741 0.566926 0.050000
v 0.246666 0.548772 -0.050000
v 0.246666 0.548772 0.050000
v 0.221500 0.527250 -0.050000
v 0.221500 0.527250 0.050000
v 0.199501 0.502603 -0.050000
v 0.199501 0.502603 0.050000
v 0.180926 0.475074 -0.050000
v 0.180926 0.475074 0.050000
v 0.166031 0.444906 -0.050000
v 0.166031 0.444906 0.050000
v 0.155074 0.412343 -0.050000
v 0.155074 0.412343 0.050000
v 0.148311 0.377626 -0.050000
v 0.148311 0.377626 0.050000
v 0.146000 0.341000 -0.050000
v 0.146000 0.341000 0.050000
v 0.148311 0.304584 -0.050000
v 0.148311 0.304584 0.050000
v 0.155074 0.270005 -0.050000
v 0.155074 0.270005 0.050000
v 0.166031 0.237516 -0.050000
v 0.166031 0.237516 0.050000
v 0.180926 0.207370 -0.050000
v 0.180926 0.207370 0.050000
v 0.199501 0.179822 -0.050000
v 0.199501 0.179822 0.050000
v 0.221500 0.155125 -0.050000
v 0.221500 0.155125 0.050000
v 0.246666 0.133532 -0.050000
v 0.246666 0.133532 0.050000
v 0.274741 0.115296 -0.050000
v 0.274741 0.115296 0.050000
v 0.305469 0.100672 -0.050000
v 0.305469 0.100672 0.050000
v 0.338593 0.089912 -0.050000
v 0.338593 0.089912 0.050000
v 0.373855 0.083270 -0.050000
v 0.373855 0.083270 0.050000
v 0.411000 0.081000 -0.050000
v 0.411000 0.081000 0.050000
vn 0.000000 0.000000 1.000000
vn 0.000000 0.000000 -1.000000
vn 0.121700 0.992600 0.000000
vn 0.246500 0.969200 0.000000
vn 0.371200 0.928500 0.000000
vn 0.492100 0.870500 0.000000
vn 0.605300 0.796000 0.000000
vn 0.707600 0.706600 0.000000
vn 0.796400 0.604800 0.000000
vn 0.870000 0.493100 0.000000
vn 0.927300 0.374300 0.000000
vn 0.968000 0.251000 0.000000
vn 0.992100 0.125500 0.000000
vn 1.000000 -0.000000 0.000000
vn 0.992100 -0.125100 0.000000
vn 0.968400 -0.249400 0.000000
vn 0.928600 -0.371100 0.000000
vn 0.872600 -0.488500 0.000000
vn 0.800500 -0.599300 0.000000
vn 0.713000 -0.701200 0.000000
vn 0.611400 -0.791300 0.000000
vn 0.498000 -0.867200 0.000000
vn 0.376100 -0.926600 0.000000
vn 0.249700 -0.968300 0.000000
vn 0.123200 -0.992400 0.000000
vn -0.000800 -1.000000 0.000000
vn -0.126000 -0.992000 0.000000
vn -0.254100 -0.967200 0.000000
vn -0.380700 -0.924700 0.000000
vn -0.501700 -0.865000 0.000000
vn -0.613600 -0.789600 0.000000
vn -0.713700 -0.700400 0.000000
vn -0.800100 -0.599900 0.000000
vn -0.871600 -0.490200 0.000000
vn -0.927600 -0.373600 0.000000
vn -0.967800 -0.251900 0.000000
vn -0.991900 -0.126700 0.000000
vn -1.000000 0.000300 0.000000
vn -0.991800 0.128100 0.000000
vn -0.966900 0.255100 0.000000
vn -0.925500 0.378700 0.000000
vn -0.867900 0.496700 0.000000
vn -0.794700 0.607000 0.000000
vn -0.706900 0.707300 0.000000
vn -0.606100 0.795400 0.000000
vn -0.494400 0.869200 0.000000
vn -0.374500 0.927200 0.000000
vn -0.249800 0.968300 0.000000
vn -0.123900 0.992300 0.000000
vn -0.000700 1.000000 0.000000
vn -0.122600 0.992500 -0.000000
vn -0.246400 0.969200 -0.000000
vn -0.368700 0.929500 -0.000000
vn -0.486900 0.873500 -0.000000
vn -0.598100 0.801500 0.000000
vn -0.699600 0.714500 0.000000
vn -0.789100 0.614300 0.000000
vn -0.864400 0.502800 0.000000
vn -0.923900 0.382500 0.000000
vn -0.966500 0.256500 0.000000
vn -0.991800 0.128000 0.000000
vn -1.000000 0.000200 0.000000
vn -0.991800 -0.127400 0.000000
vn -0.966700 -0.255800 0.000000
vn -0.924100 -0.382100 0.000000
vn -0.864400 -0.502800 0.000000
vn -0.788700 -0.614800 0.000000
vn -0.698600 -0.715500 0.000000
vn -0.596600 -0.802500 0.000000
vn -0.485100 -0.874500 0.000000
vn -0.366800 -0.930300 0.000000
vn -0.244800 -0.969600 0.000000
vn -0.121700 -0.992600 0.000000
vn 0.000200 -1.000000 0.000000
vn 0.122400 -0.992500 0.000000
vn 0.245900 -0.969300 0.000000
vn 0.368200 -0.929700 0.000000
vn 0.486400 -0.873700 0.000000
vn 0.597800 -0.801600 0.000000
vn 0.699600 -0.714600 0.000000
vn 0.789300 -0.614000 0.000000
vn 0.864800 -0.502200 0.000000
vn 0.924300 -0.381700 0.000000
vn 0.966800 -0.255600 0.000000
vn 0.991900 -0.127400 0.000000
vn 1.000000 0.000200 0.000000
vn 0.991800 0.127900 0.000000
vn 0.966600 0.256300 0.000000
vn 0.924100 0.382100 0.000000
vn 0.864800 0.502200 0.000000
vn 0.789700 0.613500 0.000000
vn 0.700500 0.713600 0.000000
vn 0.599300 0.800500 0.000000
vn 0.488300 0.872700 -0.000000
vn 0.370100 0.929000 -0.000000
vn 0.247500 0.968900 -0.000000
vn 0.123300 0.992400 -0.000000
vn 0.000200 1.000000 -0.000000
usemtl None
s off
f 47//1 1//1 48//1
f 47//1 2//1 1//1
f 46//1 2//1 47//1
f 46//1 3//1 2//1
f 45//1 3//1 46//1
f 45//1 4//1 3//1
f 44//1 4//1 45//1
f 44//1 5//1 4//1
f 43//1 5//1 44//1
f 43//1 6//1 5//1
f 42//1 72//1 43//1
f 72//1 6//1 43//1
f 42//1 73//1 72//1
f 71//1 6//1 72//1
f 70//1 6//1 71//1
f 42//1 74//1 73//1
f 69//1 6//1 70//1
f 42//1 75//1 74//1
f 69//1 7//1 6//1
f 41//1 75//1 42//1
f 68//1 7//1 69//1
f 41//1 76//1 75//1
f 67//1 7//1 68//1
f 41//1 77//1 76//1
f 67//1 8//1 7//1
f 40//1 77//1 41//1
f 66//1 8//1 67//1
f 40//1 78//1 77//1
f 65//1 8//1 66//1
f 40//1 79//1 78//1
f 65//1 9//1 8//1
f 39//1 79//1 40//1
f 64//1 9//1 65//1
f 39//1 80//1 79//1
f 64//1 10//1 9//1
f 38//1 80//1 39//1
f 63//1 10//1 64//1
f 38//1 81//1 80//1
f 62//1 10//1 63//1
f 38//1 82//1 81//1
f 62//1 11//1 10//1
f 37//1 82//1 38//1
f 61//1 11//1 62//1
f 37//1 83//1 82//1
f 61//1 12//1 11//1
f 36//1 83//1 37//1
f 60//1 12//1 61//1
f 36//1 84//1 83//1
f 35//1 84//1 36//1
f 35//1 85//1 84//1
f 59//1 12//1 60//1
f 59//1 13//1 12//1
f 35//1 86//1 85//1
f 58//1 13//1 59//1
f 58//1 14//1 13//1
f 34//1 86//1 35//1
f 34//1 87//1 86//1
f 57//1 14//1 58//1
f 57//1 15//1 14//1
f 33//1 87//1 34//1
f 56//1 15//1 57//1
f 33//1 88//1 87//1
f 56//1 16//1 15//1
f 32//1 88//1 33//1
f 55//1 16//1 56//1
f 32//1 89//1 88//1
f 54//1 16//1 55//1
f 32//1 90//1 89//1
f 54//1 17//1 16//1
f 31//1 90//1 32//1
f 53//1 17//1 54//1
f 31//1 91//1 90//1
f 52//1 17//1 53//1
f 31//1 92//1 91//1
f 52//1 18//1 17//1
f 30//1 92//1 31//1
f 51//1 18//1 52//1
f 30//1 93//1 92//1
f 50//1 18//1 51//1
f 30//1 94//1 93//1
f 50//1 19//1 18//1
f 29//1 94//1 30//1
f 49//1 19//1 50//1
f 29//1 95//1 94//1
f 96//1 19//1 49//1
f 29//1 96//1 95//1
f 29//1 19//1 96//1
f 29//1 20//1 19//1
f 28//1 20//1 29//1
f 28//1 21//1 20//1
f 27//1 21//1 28//1
f 27//1 22//1 21//1
f 26//1 22//1 27//1
f 26//1 23//1 22//1
f 25//1 23//1 26//1
f 25//1 24//1 23//1
f 97//2 143//2 144//2
f 98//2 143//2 97//2
f 98//2 142//2 143//2
f 99//2 142//2 98//2
f 99//2 141//2 142//2
f 100//2 141//2 99//2
f 100//2 140//2 141//2
f 101//2 140//2 100//2
f 101//2 139//2 140//2
f 102//2 139//2 101//2
f 168//2 138//2 139//2
f 102//2 168//2 139//2
f 169//2 138//2 168//2
f 102//2 167//2 168//2
f 102//2 166//2 167//2
f 170//2 138//2 169//2
f 102//2 165//2 166//2
f 171//2 138//2 170//2
f 103//2 165//2 102//2
f 171//2 137//2 138//2
f 103//2 164//2 165//2
f 172//2 137//2 171//2
f 103//2 163//2 164//2
f 173//2 137//2 172//2
f 104//2 163//2 103//2
f 173//2 136//2 137//2
f 104//2 162//2 163//2
f 174//2 136//2 173//2
f 104//2 161//2 162//2
f 175//2 136//2 174//2
f 105//2 161//2 104//2
f 175//2 135//2 136//2
f 105//2 160//2 161//2
f 176//2 135//2 175//2
f 106//2 160//2 105//2
f 176//2 134//2 135//2
f 106//2 159//2 160//2
f 177//2 134//2 176//2
f 106//2 158//2 159//2
f 178//2 134//2 177//2
f 107//2 158//2 106//2
f 178//2 133//2 134//2
f 107//2 157//2 158//2
f 179//2 133//2 178//2
f 108//2 157//2 107//2
f 179//2 132//2 133//2
f 108//2 156//2 157//2
f 180//2 132//2 179//2
f 180//2 131//2 132//2
f 181//2 131//2 180//2
f 108//2 155//2 156//2
f 109//2 155//2 108//2
f 182//2 131//2 181//2
f 109//2 154//2 155//2
f 110//2 154//2 109//2
f 182//2 130//2 131//2
f 183//2 130//2 182//2
f 110//2 153//2 154//2
f 111//2 153//2 110//2
f 183//2 129//2 130//2
f 111//2 152//2 153//2
f 184//2 129//2 183//2
f 112//2 152//2 111//2
f 184//2 128//2 129//2
f 112//2 151//2 152//2
f 185//2 128//2 184//2
f 112//2 150//2 151//2
f 186//2 128//2 185//2
f 113//2 150//2 112//2
f 186//2 127//2 128//2
f 113//2 149//2 150//2
f 187//2 127//2 186//2
f 113//2 148//2 149//2
f 188//2 127//2 187//2
f 114//2 148//2 113//2
f 188//2 126//2 127//2
f 114//2 147//2 148//2
f 189//2 126//2 188//2
f 114//2 146//2 147//2
f 190//2 126//2 189//2
f 115//2 146//2 114//2
f 190//2 125//2 126//2
f 115//2 145//2 146//2
f 191//2 125//2 190//2
f 115//2 192//2 145//2
f 192//2 125//2 191//2
f 115//2 125//2 192//2
f 116//2 125//2 115//2
f 116//2 124//2 125//2
f 117//2 124//2 116//2
f 117//2 123//2 124//2
f 118//2 123//2 117//2
f 118//2 122//2 123//2
f 119//2 122//2 118//2
f 119//2 121//2 122//2
f 120//2 121//2 119//2
s 1
f 194//3 196//4 195//4 193//3
f 196//4 198//5 197//5 195//4
f 198//5 200//6 199//6 197//5
f 200//6 202//7 201//7 199//6
f 202//7 204//8 203//8 201//7
f 204//8 206//9 205//9 203//8
f 206//9 208//10 207//10 205//9
f 208//10 210//11 209//11 207//10
f 210//11 212//12 211//12 209//11
f 212//12 214//13 213//13 211//12
f 214//13 216//14 215//14 213//13
f 216//14 218//15 217//15 215//14
f 218//15 220//16 219//16 217//15
f 220//16 222//17 221//17 219//16
f 222//17 224//18 223//18 221//17
f 224//18 226//19 225//19 223//18
f 226//19 228//20 227//20 225//19
f 228//20 230//21 229//21 227//20
f 230//21 232//22 231//22 229//21
f 232//22 234//23 233//23 231//22
f 234//23 236//24 235//24 233//23
f 236//24 238//25 237//25 235//24
f 238//25 240//26 239//26 237//25
f 240//26 242//27 241//27 239//26
f 242//27 244//28 243//28 241//27
f 244//28 246//29 245//29 243//28
f 246//29 248//30 247//30 245//29
f 248//30 250//31 249//31 247//30
f 250//31 252//32 251//32 249//31
f 252//32 254//33 253//33 251//32
f 254//33 256//34 255//34 253//33
f 256//34 258//35 257//35 255//34
f 258//35 260//36 259//36 257//35
f 260//36 262//37 261//37 259//36
f 262//37 264//38 263//38 261//37
f 264//38 266//39 265//39 263//38
f 266//39 268//40 267//40 265//39
f 268//40 270//41 269//41 267//40
f 270//41 272//42 271//42 269//41
f 272//42 274//43 273//43 271//42
f 274//43 276//44 275//44 273//43
f 276//44 278//45 277//45 275//44
f 278//45 280//46 279//46 277//45
f 280//46 282//47 281//47 279//46
f 282//47 284//48 283//48 281//47
f 284//48 286//49 285//49 283//48
f 286//49 288//50 287//50 285//49
f 288//50 194//3 193//3 287//50
f 290//51 292//52 291//52 289//51
f 292//52 294//53 293//53 291//52
f 294//53 296//54 295//54 293//53
f 296//54 298//55 297//55 295//54
f 298//55 300//56 299//56 297//55
f 300//56 302//57 301//57 299//56
f 302//57 304//58 303//58 301//57
f 304//58 306//59 305//59 303//58
f 306//59 308//60 307//60 305//59
f 308//60 310//61 309//61 307//60
f 310//61 312//62 311//62 309//61
f 312//62 314//63 313//63 311//62
f 314//63 316//64 315//64 313//63
f 316//64 318//65 317//65 315//64
f 318//65 320//66 319//66 317//65
f 320//66 322//67 321//67 319//66
f 322//67 324//68 323//68 321//67
f 324//68 326//69 325//69 323//68
f 326//69 328//70 327//70 325//69
f 328//70 330//71 329//71 327//70
f 330//71 332//72 331//72 329//71
f 332//72 334//73 333//73 331//72
f 334//73 336//74 335//74 333//73
f 336//74 338//75 337//75 335//74
f 338//75 340//76 339//76 337//75
f 340//76 342//77 341//77 339//76
f 342//77 344//78 343//78 341//77
f 344//78 346//79 345//79 343//78
f 346//79 348//80 347//80 345//79
f 348//80 350//81 349//81 347//80
f 350//81 352//82 351//82 349//81
f 352//82 354//83 353//83 351//82
f 354//83 356//84 355//84 353//83
f 356//84 358//85 357//85 355//84
f 358//85 360//86 359//86 357//85
f 360//86 362//87 361//87 359//86
f 362//87 364//88 363//88 361//87
f 364//88 366//89 365//89 363//88
f 366//89 368//90 367//90 365//89
f 368//90 370//91 369//91 367//90
f 370//91 372//92 371//92 369//91
f 372//92 374//93 373//93 371//92
f 374//93 376//94 375//94 373//93
f 376//94 378//95 377//95 375//94
f 378//95 380//96 379//96 377//95
f 380//96 382//97 381//97 379//96
f 382//97 384//98 383//98 381//97
f 384//98 290//51 289//51 383//98
