# Blender v2.72 (sub 0) OBJ File: ''
# www.blender.org
mtllib 20.mtl
o Text
v 0.645915 0.227468 0.050000
v 0.639653 0.189495 0.050000
v 0.629203 0.154266 0.050000
v 0.614555 0.121963 0.050000
v 0.595700 0.092771 0.050000
v 0.572625 0.066875 0.050000
v 0.545321 0.044458 0.050000
v 0.513778 0.025704 0.050000
v 0.477984 0.010797 0.050000
v 0.437931 -0.000079 0.050000
v 0.393606 -0.006739 0.050000
v 0.345000 -0.009000 0.050000
v 0.309162 -0.007299 0.050000
v 0.273963 -0.002139 0.050000
v 0.239875 0.006562 0.050000
v 0.207370 0.018889 0.050000
v 0.176921 0.034924 0.050000
v 0.149000 0.054750 0.050000
v 0.124079 0.078451 0.050000
v 0.102630 0.106111 0.050000
v 0.085125 0.137812 0.050000
v 0.072037 0.173639 0.050000
v 0.063838 0.213674 0.050000
v 0.061000 0.258000 0.050000
v 0.061000 0.682000 0.050000
v 0.159000 0.682000 0.050000
v 0.159000 0.279000 0.050000
v 0.159215 0.260662 0.050000
v 0.159884 0.244046 0.050000
v 0.161047 0.229000 0.050000
v 0.162741 0.215370 0.050000
v 0.165004 0.203005 0.050000
v 0.167875 0.191750 0.050000
v 0.171392 0.181454 0.050000
v 0.175593 0.171963 0.050000
v 0.180516 0.163125 0.050000
v 0.186199 0.154787 0.050000
v 0.192681 0.146796 0.050000
v 0.200000 0.139000 0.050000
v 0.209958 0.129666 0.050000
v 0.220333 0.121162 0.050000
v 0.231125 0.113484 0.050000
v 0.242333 0.106630 0.050000
v 0.253958 0.100594 0.050000
v 0.266000 0.095375 0.050000
v 0.278458 0.090968 0.050000
v 0.291333 0.087370 0.050000
v 0.304625 0.084578 0.050000
v 0.318333 0.082588 0.050000
v 0.332458 0.081396 0.050000
v 0.347000 0.081000 0.050000
v 0.365311 0.081490 0.050000
v 0.382741 0.082921 0.050000
v 0.399281 0.085234 0.050000
v 0.414926 0.088370 0.050000
v 0.429668 0.092270 0.050000
v 0.443500 0.096875 0.050000
v 0.456416 0.102126 0.050000
v 0.468407 0.107963 0.050000
v 0.479469 0.114328 0.050000
v 0.489593 0.121162 0.050000
v 0.498772 0.128406 0.050000
v 0.507000 0.136000 0.050000
v 0.515198 0.145062 0.050000
v 0.522338 0.154745 0.050000
v 0.528484 0.165047 0.050000
v 0.533704 0.175963 0.050000
v 0.538062 0.187490 0.050000
v 0.541625 0.199625 0.050000
v 0.544459 0.212364 0.050000
v 0.546630 0.225704 0.050000
v 0.548203 0.239641 0.050000
v 0.549245 0.254171 0.050000
v 0.549822 0.269292 0.050000
v 0.550000 0.285000 0.050000
v 0.550000 0.682000 0.050000
v 0.648000 0.682000 0.050000
v 0.648000 0.268000 0.050000
v 0.645915 0.227468 -0.050000
v 0.639653 0.189495 -0.050000
v 0.629203 0.154266 -0.050000
v 0.614555 0.121963 -0.050000
v 0.595700 0.092771 -0.050000
v 0.572625 0.066875 -0.050000
v 0.545321 0.044458 -0.050000
v 0.513778 0.025704 -0.050000
v 0.477984 0.010797 -0.050000
v 0.437931 -0.000079 -0.050000
v 0.393606 -0.006739 -0.050000
v 0.345000 -0.009000 -0.050000
v 0.309162 -0.007299 -0.050000
v 0.273963 -0.002139 -0.050000
v 0.239875 0.006562 -0.050000
v 0.207370 0.018889 -0.050000
v 0.176921 0.034924 -0.050000
v 0.149000 0.054750 -0.050000
v 0.124079 0.078451 -0.050000
v 0.102630 0.106111 -0.050000
v 0.085125 0.137812 -0.050000
v 0.072037 0.173639 -0.050000
v 0.063838 0.213674 -0.050000
v 0.061000 0.258000 -0.050000
v 0.061000 0.682000 -0.050000
v 0.159000 0.682000 -0.050000
v 0.159000 0.279000 -0.050000
v 0.159215 0.260662 -0.050000
v 0.159884 0.244046 -0.050000
v 0.161047 0.229000 -0.050000
v 0.162741 0.215370 -0.050000
v 0.165004 0.203005 -0.050000
v 0.167875 0.191750 -0.050000
v 0.171392 0.181454 -0.050000
v 0.175593 0.171963 -0.050000
v 0.180516 0.163125 -0.050000
v 0.186199 0.154787 -0.050000
v 0.192681 0.146796 -0.050000
v 0.200000 0.139000 -0.050000
v 0.209958 0.129666 -0.050000
v 0.220333 0.121162 -0.050000
v 0.231125 0.113484 -0.050000
v 0.242333 0.106630 -0.050000
v 0.253958 0.100594 -0.050000
v 0.266000 0.095375 -0.050000
v 0.278458 0.090968 -0.050000
v 0.291333 0.087370 -0.050000
v 0.304625 0.084578 -0.050000
v 0.318333 0.082588 -0.050000
v 0.332458 0.081396 -0.050000
v 0.347000 0.081000 -0.050000
v 0.365311 0.081490 -0.050000
v 0.382741 0.082921 -0.050000
v 0.399281 0.085234 -0.050000
v 0.414926 0.088370 -0.050000
v 0.429668 0.092270 -0.050000
v 0.443500 0.096875 -0.050000
v 0.456416 0.102126 -0.050000
v 0.468407 0.107963 -0.050000
v 0.479469 0.114328 -0.050000
v 0.489593 0.121162 -0.050000
v 0.498772 0.128406 -0.050000
v 0.507000 0.136000 -0.050000
v 0.515198 0.145062 -0.050000
v 0.522338 0.154745 -0.050000
v 0.528484 0.165047 -0.050000
v 0.533704 0.175963 -0.050000
v 0.538062 0.187490 -0.050000
v 0.541625 0.199625 -0.050000
v 0.544459 0.212364 -0.050000
v 0.546630 0.225704 -0.050000
v 0.548203 0.239641 -0.050000
v 0.549245 0.254171 -0.050000
v 0.549822 0.269292 -0.050000
v 0.550000 0.285000 -0.050000
v 0.550000 0.682000 -0.050000
v 0.648000 0.682000 -0.050000
v 0.648000 0.268000 -0.050000
v 0.645915 0.227468 -0.050000
v 0.645915 0.227468 0.050000
v 0.639653 0.189495 -0.050000
v 0.639653 0.189495 0.050000
v 0.629203 0.154266 -0.050000
v 0.629203 0.154266 0.050000
v 0.614555 0.121963 -0.050000
v 0.614555 0.121963 0.050000
v 0.595700 0.092771 -0.050000
v 0.595700 0.092771 0.050000
v 0.572625 0.066875 -0.050000
v 0.572625 0.066875 0.050000
v 0.545321 0.044458 -0.050000
v 0.545321 0.044458 0.050000
v 0.513778 0.025704 -0.050000
v 0.513778 0.025704 0.050000
v 0.477984 0.010797 -0.050000
v 0.477984 0.010797 0.050000
v 0.437931 -0.000079 -0.050000
v 0.437931 -0.000079 0.050000
v 0.393606 -0.006739 -0.050000
v 0.393606 -0.006739 0.050000
v 0.345000 -0.009000 -0.050000
v 0.345000 -0.009000 0.050000
v 0.309162 -0.007299 -0.050000
v 0.309162 -0.007299 0.050000
v 0.273963 -0.002139 -0.050000
v 0.273963 -0.002139 0.050000
v 0.239875 0.006562 -0.050000
v 0.239875 0.006562 0.050000
v 0.207370 0.018889 -0.050000
v 0.207370 0.018889 0.050000
v 0.176921 0.034924 -0.050000
v 0.176921 0.034924 0.050000
v 0.149000 0.054750 -0.050000
v 0.149000 0.054750 0.050000
v 0.124079 0.078451 -0.050000
v 0.124079 0.078451 0.050000
v 0.102630 0.106111 -0.050000
v 0.102630 0.106111 0.050000
v 0.085125 0.137812 -0.050000
v 0.085125 0.137812 0.050000
v 0.072037 0.173639 -0.050000
v 0.072037 0.173639 0.050000
v 0.063838 0.213674 -0.050000
v 0.063838 0.213674 0.050000
v 0.061000 0.258000 -0.050000
v 0.061000 0.258000 0.050000
v 0.061000 0.682000 -0.050000
v 0.061000 0.682000 0.050000
v 0.159000 0.682000 -0.050000
v 0.159000 0.682000 0.050000
v 0.159000 0.279000 -0.050000
v 0.159000 0.279000 0.050000
v 0.159215 0.260662 -0.050000
v 0.159215 0.260662 0.050000
v 0.159884 0.244046 -0.050000
v 0.159884 0.244046 0.050000
v 0.161047 0.229000 -0.050000
v 0.161047 0.229000 0.050000
v 0.162741 0.215370 -0.050000
v 0.162741 0.215370 0.050000
v 0.165004 0.203005 -0.050000
v 0.165004 0.203005 0.050000
v 0.167875 0.191750 -0.050000
v 0.167875 0.191750 0.050000
v 0.171392 0.181454 -0.050000
v 0.171392 0.181454 0.050000
v 0.175593 0.171963 -0.050000
v 0.175593 0.171963 0.050000
v 0.180516 0.163125 -0.050000
v 0.180516 0.163125 0.050000
v 0.186199 0.154787 -0.050000
v 0.186199 0.154787 0.050000
v 0.192681 0.146796 -0.050000
v 0.192681 0.146796 0.050000
v 0.200000 0.139000 -0.050000
v 0.200000 0.139000 0.050000
v 0.209958 0.129666 -0.050000
v 0.209958 0.129666 0.050000
v 0.220333 0.121162 -0.050000
v 0.220333 0.121162 0.050000
v 0.231125 0.113484 -0.050000
v 0.231125 0.113484 0.050000
v 0.242333 0.106630 -0.050000
v 0.242333 0.106630 0.050000
v 0.253958 0.100594 -0.050000
v 0.253958 0.100594 0.050000
v 0.266000 0.095375 -0.050000
v 0.266000 0.095375 0.050000
v 0.278458 0.090968 -0.050000
v 0.278458 0.090968 0.050000
v 0.291333 0.087370 -0.050000
v 0.291333 0.087370 0.050000
v 0.304625 0.084578 -0.050000
v 0.304625 0.084578 0.050000
v 0.318333 0.082588 -0.050000
v 0.318333 0.082588 0.050000
v 0.332458 0.081396 -0.050000
v 0.332458 0.081396 0.050000
v 0.347000 0.081000 -0.050000
v 0.347000 0.081000 0.050000
v 0.365311 0.081490 -0.050000
v 0.365311 0.081490 0.050000
v 0.382741 0.082921 -0.050000
v 0.382741 0.082921 0.050000
v 0.399281 0.085234 -0.050000
v 0.399281 0.085234 0.050000
v 0.414926 0.088370 -0.050000
v 0.414926 0.088370 0.050000
v 0.429668 0.092270 -0.050000
v 0.429668 0.092270 0.050000
v 0.443500 0.096875 -0.050000
v 0.443500 0.096875 0.050000
v 0.456416 0.102126 -0.050000
v 0.456416 0.102126 0.050000
v 0.468407 0.107963 -0.050000
v 0.468407 0.107963 0.050000
v 0.479469 0.114328 -0.050000
v 0.479469 0.114328 0.050000
v 0.489593 0.121162 -0.050000
v 0.489593 0.121162 0.050000
v 0.498772 0.128406 -0.050000
v 0.498772 0.128406 0.050000
v 0.507000 0.136000 -0.050000
v 0.507000 0.136000 0.050000
v 0.515198 0.145062 -0.050000
v 0.515198 0.145062 0.050000
v 0.522338 0.154745 -0.050000
v 0.522338 0.154745 0.050000
v 0.528484 0.165047 -0.050000
v 0.528484 0.165047 0.050000
v 0.533704 0.175963 -0.050000
v 0.533704 0.175963 0.050000
v 0.538062 0.187490 -0.050000
v 0.538062 0.187490 0.050000
v 0.541625 0.199625 -0.050000
v 0.541625 0.199625 0.050000
v 0.544459 0.212364 -0.050000
v 0.544459 0.212364 0.050000
v 0.546630 0.225704 -0.050000
v 0.546630 0.225704 0.050000
v 0.548203 0.239641 -0.050000
v 0.548203 0.239641 0.050000
v 0.549245 0.254171 -0.050000
v 0.549245 0.254171 0.050000
v 0.549822 0.269292 -0.050000
v 0.549822 0.269292 0.050000
v 0.550000 0.285000 -0.050000
v 0.550000 0.285000 0.050000
v 0.550000 0.682000 -0.050000
v 0.550000 0.682000 0.050000
v 0.648000 0.682000 -0.050000
v 0.648000 0.682000 0.050000
v 0.648000 0.268000 -0.050000
v 0.648000 0.268000 0.050000
vn 0.000000 0.000000 1.000000
vn 0.000000 -0.000000 -1.000000
vn 0.994200 -0.107200 0.000000
vn 0.974600 -0.224000 0.000000
vn 0.936900 -0.349500 0.000000
vn 0.877800 -0.479100 0.000000
vn 0.795700 -0.605700 0.000000
vn 0.692700 -0.721200 0.000000
vn 0.574400 -0.818500 0.000000
vn 0.448900 -0.893600 0.000000
vn 0.323900 -0.946100 0.000000
vn 0.205700 -0.978600 0.000000
vn 0.097700 -0.995200 0.000000
vn -0.000500 -1.000000 0.000000
vn -0.096300 -0.995300 0.000000
vn -0.196500 -0.980500 0.000000
vn -0.301400 -0.953500 0.000000
vn -0.411000 -0.911600 0.000000
vn -0.523600 -0.852000 0.000000
vn -0.635700 -0.772000 0.000000
vn -0.741800 -0.670600 0.000000
vn -0.835300 -0.549700 0.000000
vn -0.910100 -0.414500 0.000000
vn -0.962100 -0.272600 0.000000
vn -0.991200 -0.132600 0.000000
vn -0.999500 -0.032000 0.000000
vn -0.707100 0.707100 0.000000
vn 0.707100 0.707100 0.000000
vn 1.000000 0.005900 0.000000
vn 0.999700 0.026000 0.000000
vn 0.998300 0.058700 0.000000
vn 0.995000 0.100200 0.000000
vn 0.988400 0.151700 0.000000
vn 0.976900 0.213700 0.000000
vn 0.958400 0.285400 0.000000
vn 0.931300 0.364300 0.000000
vn 0.895000 0.446200 0.000000
vn 0.850800 0.525500 0.000000
vn 0.802100 0.597100 0.000000
vn 0.753300 0.657600 0.000000
vn 0.706800 0.707400 0.000000
vn 0.659300 0.751900 -0.000000
vn 0.607200 0.794600 -0.000000
vn 0.551100 0.834500 -0.000000
vn 0.491600 0.870800 -0.000000
vn 0.429500 0.903100 -0.000000
vn 0.365800 0.930700 -0.000000
vn 0.301500 0.953500 -0.000000
vn 0.237500 0.971400 -0.000000
vn 0.174700 0.984600 -0.000000
vn 0.113900 0.993500 -0.000000
vn 0.055700 0.998400 -0.000000
vn 0.000200 1.000000 -0.000000
vn -0.054300 0.998500 -0.000000
vn -0.110200 0.993900 -0.000000
vn -0.167600 0.985900 -0.000000
vn -0.226200 0.974100 -0.000000
vn -0.285900 0.958200 -0.000000
vn -0.346400 0.938100 -0.000000
vn -0.407400 0.913300 -0.000000
vn -0.468500 0.883500 -0.000000
vn -0.529500 0.848300 -0.000000
vn -0.589900 0.807500 -0.000000
vn -0.649300 0.760500 0.000000
vn -0.710600 0.703600 0.000000
vn -0.774200 0.633000 0.000000
vn -0.832800 0.553600 0.000000
vn -0.881400 0.472400 0.000000
vn -0.919600 0.392900 0.000000
vn -0.948100 0.317900 0.000000
vn -0.968400 0.249600 0.000000
vn -0.982000 0.189000 0.000000
vn -0.990600 0.136400 0.000000
vn -0.995800 0.091900 0.000000
vn -0.998500 0.054800 0.000000
vn -0.999700 0.024700 0.000000
vn -1.000000 0.005700 0.000000
vn 0.999700 -0.025700 0.000000
usemtl None
s off
f 24//1 26//1 25//1
f 24//1 27//1 26//1
f 75//1 77//1 76//1
f 75//1 78//1 77//1
f 74//1 78//1 75//1
f 24//1 28//1 27//1
f 73//1 78//1 74//1
f 73//1 1//1 78//1
f 24//1 29//1 28//1
f 23//1 29//1 24//1
f 72//1 1//1 73//1
f 23//1 30//1 29//1
f 71//1 1//1 72//1
f 23//1 31//1 30//1
f 71//1 2//1 1//1
f 70//1 2//1 71//1
f 23//1 32//1 31//1
f 22//1 32//1 23//1
f 69//1 2//1 70//1
f 22//1 33//1 32//1
f 68//1 2//1 69//1
f 22//1 34//1 33//1
f 68//1 3//1 2//1
f 67//1 3//1 68//1
f 22//1 35//1 34//1
f 66//1 3//1 67//1
f 21//1 35//1 22//1
f 21//1 36//1 35//1
f 65//1 3//1 66//1
f 21//1 37//1 36//1
f 21//1 38//1 37//1
f 64//1 3//1 65//1
f 64//1 4//1 3//1
f 21//1 39//1 38//1
f 63//1 4//1 64//1
f 21//1 40//1 39//1
f 20//1 40//1 21//1
f 62//1 4//1 63//1
f 20//1 41//1 40//1
f 61//1 4//1 62//1
f 61//1 5//1 4//1
f 20//1 42//1 41//1
f 60//1 5//1 61//1
f 59//1 5//1 60//1
f 20//1 43//1 42//1
f 58//1 5//1 59//1
f 20//1 44//1 43//1
f 19//1 44//1 20//1
f 57//1 5//1 58//1
f 19//1 45//1 44//1
f 56//1 5//1 57//1
f 19//1 46//1 45//1
f 56//1 6//1 5//1
f 55//1 6//1 56//1
f 19//1 47//1 46//1
f 54//1 6//1 55//1
f 19//1 48//1 47//1
f 53//1 6//1 54//1
f 19//1 49//1 48//1
f 52//1 6//1 53//1
f 19//1 50//1 49//1
f 51//1 6//1 52//1
f 19//1 51//1 50//1
f 19//1 6//1 51//1
f 18//1 6//1 19//1
f 18//1 7//1 6//1
f 17//1 7//1 18//1
f 17//1 8//1 7//1
f 16//1 8//1 17//1
f 16//1 9//1 8//1
f 15//1 9//1 16//1
f 15//1 10//1 9//1
f 14//1 10//1 15//1
f 14//1 11//1 10//1
f 13//1 11//1 14//1
f 13//1 12//1 11//1
f 104//2 102//2 103//2
f 105//2 102//2 104//2
f 155//2 153//2 154//2
f 156//2 153//2 155//2
f 156//2 152//2 153//2
f 106//2 102//2 105//2
f 156//2 151//2 152//2
f 79//2 151//2 156//2
f 107//2 102//2 106//2
f 107//2 101//2 102//2
f 79//2 150//2 151//2
f 108//2 101//2 107//2
f 79//2 149//2 150//2
f 109//2 101//2 108//2
f 80//2 149//2 79//2
f 80//2 148//2 149//2
f 110//2 101//2 109//2
f 110//2 100//2 101//2
f 80//2 147//2 148//2
f 111//2 100//2 110//2
f 80//2 146//2 147//2
f 112//2 100//2 111//2
f 81//2 146//2 80//2
f 81//2 145//2 146//2
f 113//2 100//2 112//2
f 81//2 144//2 145//2
f 113//2 99//2 100//2
f 114//2 99//2 113//2
f 81//2 143//2 144//2
f 115//2 99//2 114//2
f 116//2 99//2 115//2
f 81//2 142//2 143//2
f 82//2 142//2 81//2
f 117//2 99//2 116//2
f 82//2 141//2 142//2
f 118//2 99//2 117//2
f 118//2 98//2 99//2
f 82//2 140//2 141//2
f 119//2 98//2 118//2
f 82//2 139//2 140//2
f 83//2 139//2 82//2
f 120//2 98//2 119//2
f 83//2 138//2 139//2
f 83//2 137//2 138//2
f 121//2 98//2 120//2
f 83//2 136//2 137//2
f 122//2 98//2 121//2
f 122//2 97//2 98//2
f 83//2 135//2 136//2
f 123//2 97//2 122//2
f 83//2 134//2 135//2
f 124//2 97//2 123//2
f 84//2 134//2 83//2
f 84//2 133//2 134//2
f 125//2 97//2 124//2
f 84//2 132//2 133//2
f 126//2 97//2 125//2
f 84//2 131//2 132//2
f 127//2 97//2 126//2
f 84//2 130//2 131//2
f 128//2 97//2 127//2
f 84//2 129//2 130//2
f 129//2 97//2 128//2
f 84//2 97//2 129//2
f 84//2 96//2 97//2
f 85//2 96//2 84//2
f 85//2 95//2 96//2
f 86//2 95//2 85//2
f 86//2 94//2 95//2
f 87//2 94//2 86//2
f 87//2 93//2 94//2
f 88//2 93//2 87//2
f 88//2 92//2 93//2
f 89//2 92//2 88//2
f 89//2 91//2 92//2
f 90//2 91//2 89//2
s 1
f 158//3 160//4 159//4 157//3
f 160//4 162//5 161//5 159//4
f 162//5 164//6 163//6 161//5
f 164//6 166//7 165//7 163//6
f 166//7 168//8 167//8 165//7
f 168//8 170//9 169//9 167//8
f 170//9 172//10 171//10 169//9
f 172//10 174//11 173//11 171//10
f 174//11 176//12 175//12 173//11
f 176//12 178//13 177//13 175//12
f 178//13 180//14 179//14 177//13
f 180//14 182//15 181//15 179//14
f 182//15 184//16 183//16 181//15
f 184//16 186//17 185//17 183//16
f 186//17 188//18 187//18 185//17
f 188//18 190//19 189//19 187//18
f 190//19 192//20 191//20 189//19
f 192//20 194//21 193//21 191//20
f 194//21 196//22 195//22 193//21
f 196//22 198//23 197//23 195//22
f 198//23 200//24 199//24 197//23
f 200//24 202//25 201//25 199//24
f 202//25 204//26 203//26 201//25
f 204//26 206//27 205//27 203//26
f 206//27 208//28 207//28 205//27
f 208//28 210//29 209//29 207//28
f 210//29 212//30 211//30 209//29
f 212//30 214//31 213//31 211//30
f 214//31 216//32 215//32 213//31
f 216//32 218//33 217//33 215//32
f 218//33 220//34 219//34 217//33
f 220//34 222//35 221//35 219//34
f 222//35 224//36 223//36 221//35
f 224//36 226//37 225//37 223//36
f 226//37 228//38 227//38 225//37
f 228//38 230//39 229//39 227//38
f 230//39 232//40 231//40 229//39
f 232//40 234//41 233//41 231//40
f 234//41 236//42 235//42 233//41
f 236//42 238//43 237//43 235//42
f 238//43 240//44 239//44 237//43
f 240//44 242//45 241//45 239//44
f 242//45 244//46 243//46 241//45
f 244//46 246//47 245//47 243//46
f 246//47 248//48 247//48 245//47
f 248//48 250//49 249//49 247//48
f 250//49 252//50 251//50 249//49
f 252//50 254//51 253//51 251//50
f 254//51 256//52 255//52 253//51
f 256//52 258//53 257//53 255//52
f 258//53 260//54 259//54 257//53
f 260//54 262//55 261//55 259//54
f 262//55 264//56 263//56 261//55
f 264//56 266//57 265//57 263//56
f 266//57 268//58 267//58 265//57
f 268//58 270//59 269//59 267//58
f 270//59 272//60 271//60 269//59
f 272//60 274//61 273//61 271//60
f 274//61 276//62 275//62 273//61
f 276//62 278//63 277//63 275//62
f 278//63 280//64 279//64 277//63
f 280//64 282//65 281//65 279//64
f 282//65 284//66 283//66 281//65
f 284//66 286//67 285//67 283//66
f 286//67 288//68 287//68 285//67
f 288//68 290//69 289//69 287//68
f 290//69 292//70 291//70 289//69
f 292//70 294//71 293//71 291//70
f 294//71 296//72 295//72 293//71
f 296//72 298//73 297//73 295//72
f 298//73 300//74 299//74 297//73
f 300//74 302//75 301//75 299//74
f 302//75 304//76 303//76 301//75
f 304//76 306//77 305//77 303//76
f 306//77 308//27 307//27 305//77
f 308//27 310//28 309//28 307//27
f 310//28 312//78 311//78 309//28
f 312//78 158//3 157//3 311//78
