# Blender v2.72 (sub 0) OBJ File: ''
# www.blender.org
mtllib 22.mtl
o Text
v 0.745000 -0.006000 0.050000
v 0.521000 0.552000 0.050000
v 0.295000 -0.006000 0.050000
v 0.276000 -0.006000 0.050000
v 0.000000 0.682000 0.050000
v 0.098000 0.682000 0.050000
v 0.286000 0.212000 0.050000
v 0.475000 0.682000 0.050000
v 0.568000 0.682000 0.050000
v 0.758000 0.212000 0.050000
v 0.944000 0.682000 0.050000
v 1.041000 0.682000 0.050000
v 0.764000 -0.006000 0.050000
v 0.745000 -0.006000 -0.050000
v 0.521000 0.552000 -0.050000
v 0.295000 -0.006000 -0.050000
v 0.276000 -0.006000 -0.050000
v 0.000000 0.682000 -0.050000
v 0.098000 0.682000 -0.050000
v 0.286000 0.212000 -0.050000
v 0.475000 0.682000 -0.050000
v 0.568000 0.682000 -0.050000
v 0.758000 0.212000 -0.050000
v 0.944000 0.682000 -0.050000
v 1.041000 0.682000 -0.050000
v 0.764000 -0.006000 -0.050000
v 0.745000 -0.006000 -0.050000
v 0.745000 -0.006000 0.050000
v 0.521000 0.552000 -0.050000
v 0.521000 0.552000 0.050000
v 0.295000 -0.006000 -0.050000
v 0.295000 -0.006000 0.050000
v 0.276000 -0.006000 -0.050000
v 0.276000 -0.006000 0.050000
v 0.000000 0.682000 -0.050000
v 0.000000 0.682000 0.050000
v 0.098000 0.682000 -0.050000
v 0.098000 0.682000 0.050000
v 0.286000 0.212000 -0.050000
v 0.286000 0.212000 0.050000
v 0.475000 0.682000 -0.050000
v 0.475000 0.682000 0.050000
v 0.568000 0.682000 -0.050000
v 0.568000 0.682000 0.050000
v 0.758000 0.212000 -0.050000
v 0.758000 0.212000 0.050000
v 0.944000 0.682000 -0.050000
v 0.944000 0.682000 0.050000
v 1.041000 0.682000 -0.050000
v 1.041000 0.682000 0.050000
v 0.764000 -0.006000 -0.050000
v 0.764000 -0.006000 0.050000
vn 0.000000 0.000000 1.000000
vn 0.000000 -0.000000 -1.000000
vn -0.560100 -0.828400 0.000000
vn -0.001500 -1.000000 0.000000
vn 0.558800 -0.829300 0.000000
vn -0.560200 -0.828300 0.000000
vn -0.828300 0.560200 0.000000
vn 0.560600 0.828100 0.000000
vn 0.000900 1.000000 0.000000
vn -0.559900 0.828600 0.000000
vn 0.559100 0.829100 0.000000
vn -0.003700 1.000000 0.000000
vn -0.562100 0.827000 0.000000
vn 0.828700 0.559700 0.000000
vn 0.559700 -0.828700 0.000000
usemtl None
s off
f 4//1 6//1 5//1
f 4//1 7//1 6//1
f 7//1 9//1 8//1
f 7//1 2//1 9//1
f 2//1 10//1 9//1
f 10//1 12//1 11//1
f 10//1 13//1 12//1
f 7//1 3//1 2//1
f 1//1 10//1 2//1
f 4//1 3//1 7//1
f 1//1 13//1 10//1
f 19//2 17//2 18//2
f 20//2 17//2 19//2
f 22//2 20//2 21//2
f 15//2 20//2 22//2
f 23//2 15//2 22//2
f 25//2 23//2 24//2
f 26//2 23//2 25//2
f 16//2 20//2 15//2
f 23//2 14//2 15//2
f 16//2 17//2 20//2
f 26//2 14//2 23//2
s 1
f 28//3 30//4 29//4 27//3
f 30//4 32//5 31//5 29//4
f 32//5 34//6 33//6 31//5
f 34//6 36//7 35//7 33//6
f 36//7 38//8 37//8 35//7
f 38//8 40//9 39//9 37//8
f 40//9 42//10 41//10 39//9
f 42//10 44//11 43//11 41//10
f 44//11 46//12 45//12 43//11
f 46//12 48//13 47//13 45//12
f 48//13 50//14 49//14 47//13
f 50//14 52//15 51//15 49//14
f 52//15 28//3 27//3 51//15
