# Blender v2.72 (sub 0) OBJ File: ''
# www.blender.org
mtllib 24.mtl
o Text
v 0.604000 0.682000 0.050000
v 0.351000 0.360000 0.050000
v 0.351000 0.000000 0.050000
v 0.253000 0.000000 0.050000
v 0.253000 0.361000 0.050000
v 0.000000 0.682000 0.050000
v 0.118000 0.682000 0.050000
v 0.301000 0.447000 0.050000
v 0.486000 0.682000 0.050000
v 0.604000 0.682000 -0.050000
v 0.351000 0.360000 -0.050000
v 0.351000 -0.000000 -0.050000
v 0.253000 -0.000000 -0.050000
v 0.253000 0.361000 -0.050000
v 0.000000 0.682000 -0.050000
v 0.118000 0.682000 -0.050000
v 0.301000 0.447000 -0.050000
v 0.486000 0.682000 -0.050000
v 0.604000 0.682000 -0.050000
v 0.604000 0.682000 0.050000
v 0.351000 0.360000 -0.050000
v 0.351000 0.360000 0.050000
v 0.351000 -0.000000 -0.050000
v 0.351000 0.000000 0.050000
v 0.253000 -0.000000 -0.050000
v 0.253000 0.000000 0.050000
v 0.253000 0.361000 -0.050000
v 0.253000 0.361000 0.050000
v 0.000000 0.682000 -0.050000
v 0.000000 0.682000 0.050000
v 0.118000 0.682000 -0.050000
v 0.118000 0.682000 0.050000
v 0.301000 0.447000 -0.050000
v 0.301000 0.447000 0.050000
v 0.486000 0.682000 -0.050000
v 0.486000 0.682000 0.050000
vn 0.000000 0.000000 1.000000
vn 0.000000 -0.000000 -1.000000
vn 0.899400 0.437100 0.000000
vn 0.945100 -0.326900 0.000000
vn 0.707100 -0.707100 0.000000
vn -0.707100 -0.707100 0.000000
vn -0.944800 -0.327600 0.000000
vn -0.899700 0.436500 0.000000
vn 0.439100 0.898400 0.000000
vn 0.002600 1.000000 0.000000
vn -0.436700 0.899600 0.000000
usemtl None
s off
f 5//1 7//1 6//1
f 5//1 8//1 7//1
f 8//1 1//1 9//1
f 8//1 2//1 1//1
f 5//1 2//1 8//1
f 4//1 2//1 5//1
f 4//1 3//1 2//1
f 16//2 14//2 15//2
f 17//2 14//2 16//2
f 10//2 17//2 18//2
f 11//2 17//2 10//2
f 11//2 14//2 17//2
f 11//2 13//2 14//2
f 12//2 13//2 11//2
s 1
f 20//3 22//4 21//4 19//3
f 22//4 24//5 23//5 21//4
f 24//5 26//6 25//6 23//5
f 26//6 28//7 27//7 25//6
f 28//7 30//8 29//8 27//7
f 30//8 32//9 31//9 29//8
f 32//9 34//10 33//10 31//9
f 34//10 36//11 35//11 33//10
f 36//11 20//3 19//3 35//11
