# Blender v2.72 (sub 0) OBJ File: ''
# www.blender.org
mtllib 3.mtl
o Text
v 0.341000 0.682000 0.050000
v 0.401080 0.678365 0.050000
v 0.455389 0.667921 0.050000
v 0.504031 0.651359 0.050000
v 0.547111 0.629370 0.050000
v 0.584733 0.602645 0.050000
v 0.617000 0.571875 0.050000
v 0.644017 0.537751 0.050000
v 0.665889 0.500963 0.050000
v 0.682719 0.462203 0.050000
v 0.694611 0.422162 0.050000
v 0.701670 0.381531 0.050000
v 0.704000 0.341000 0.050000
v 0.701174 0.297528 0.050000
v 0.692810 0.254977 0.050000
v 0.679078 0.213891 0.050000
v 0.660148 0.174815 0.050000
v 0.636190 0.138295 0.050000
v 0.607375 0.104875 0.050000
v 0.573872 0.075101 0.050000
v 0.535852 0.049519 0.050000
v 0.493484 0.028672 0.050000
v 0.446940 0.013106 0.050000
v 0.396388 0.003367 0.050000
v 0.342000 0.000000 0.050000
v 0.076000 0.000000 0.050000
v 0.076000 0.682000 0.050000
v 0.330000 0.088000 0.050000
v 0.382007 0.091374 0.050000
v 0.427306 0.100907 0.050000
v 0.466313 0.115719 0.050000
v 0.499444 0.134926 0.050000
v 0.527118 0.157647 0.050000
v 0.549750 0.183000 0.050000
v 0.567757 0.210103 0.050000
v 0.581556 0.238074 0.050000
v 0.591563 0.266031 0.050000
v 0.598194 0.293093 0.050000
v 0.601868 0.318376 0.050000
v 0.603000 0.341000 0.050000
v 0.601178 0.374758 0.050000
v 0.595671 0.407310 0.050000
v 0.586422 0.438328 0.050000
v 0.573370 0.467481 0.050000
v 0.556458 0.494440 0.050000
v 0.535625 0.518875 0.050000
v 0.510813 0.540455 0.050000
v 0.481963 0.558852 0.050000
v 0.449016 0.573734 0.050000
v 0.411912 0.584773 0.050000
v 0.370593 0.591638 0.050000
v 0.325000 0.594000 0.050000
v 0.174000 0.594000 0.050000
v 0.174000 0.088000 0.050000
v 0.341000 0.682000 -0.050000
v 0.401080 0.678365 -0.050000
v 0.455389 0.667921 -0.050000
v 0.504031 0.651359 -0.050000
v 0.547111 0.629370 -0.050000
v 0.584733 0.602645 -0.050000
v 0.617000 0.571875 -0.050000
v 0.644017 0.537751 -0.050000
v 0.665889 0.500963 -0.050000
v 0.682719 0.462203 -0.050000
v 0.694611 0.422162 -0.050000
v 0.701670 0.381531 -0.050000
v 0.704000 0.341000 -0.050000
v 0.701174 0.297528 -0.050000
v 0.692810 0.254977 -0.050000
v 0.679078 0.213891 -0.050000
v 0.660148 0.174815 -0.050000
v 0.636190 0.138295 -0.050000
v 0.607375 0.104875 -0.050000
v 0.573872 0.075101 -0.050000
v 0.535852 0.049519 -0.050000
v 0.493484 0.028672 -0.050000
v 0.446940 0.013106 -0.050000
v 0.396388 0.003367 -0.050000
v 0.342000 -0.000000 -0.050000
v 0.076000 -0.000000 -0.050000
v 0.076000 0.682000 -0.050000
v 0.330000 0.088000 -0.050000
v 0.382007 0.091374 -0.050000
v 0.427306 0.100907 -0.050000
v 0.466313 0.115719 -0.050000
v 0.499444 0.134926 -0.050000
v 0.527118 0.157647 -0.050000
v 0.549750 0.183000 -0.050000
v 0.567757 0.210103 -0.050000
v 0.581556 0.238074 -0.050000
v 0.591563 0.266031 -0.050000
v 0.598194 0.293093 -0.050000
v 0.601868 0.318376 -0.050000
v 0.603000 0.341000 -0.050000
v 0.601178 0.374758 -0.050000
v 0.595671 0.407310 -0.050000
v 0.586422 0.438328 -0.050000
v 0.573370 0.467481 -0.050000
v 0.556458 0.494440 -0.050000
v 0.535625 0.518875 -0.050000
v 0.510813 0.540455 -0.050000
v 0.481963 0.558852 -0.050000
v 0.449016 0.573734 -0.050000
v 0.411912 0.584773 -0.050000
v 0.370593 0.591638 -0.050000
v 0.325000 0.594000 -0.050000
v 0.174000 0.594000 -0.050000
v 0.174000 0.088000 -0.050000
v 0.341000 0.682000 -0.050000
v 0.341000 0.682000 0.050000
v 0.401080 0.678365 -0.050000
v 0.401080 0.678365 0.050000
v 0.455389 0.667921 -0.050000
v 0.455389 0.667921 0.050000
v 0.504031 0.651359 -0.050000
v 0.504031 0.651359 0.050000
v 0.547111 0.629370 -0.050000
v 0.547111 0.629370 0.050000
v 0.584733 0.602645 -0.050000
v 0.584733 0.602645 0.050000
v 0.617000 0.571875 -0.050000
v 0.617000 0.571875 0.050000
v 0.644017 0.537751 -0.050000
v 0.644017 0.537751 0.050000
v 0.665889 0.500963 -0.050000
v 0.665889 0.500963 0.050000
v 0.682719 0.462203 -0.050000
v 0.682719 0.462203 0.050000
v 0.694611 0.422162 -0.050000
v 0.694611 0.422162 0.050000
v 0.701670 0.381531 -0.050000
v 0.701670 0.381531 0.050000
v 0.704000 0.341000 -0.050000
v 0.704000 0.341000 0.050000
v 0.701174 0.297528 -0.050000
v 0.701174 0.297528 0.050000
v 0.692810 0.254977 -0.050000
v 0.692810 0.254977 0.050000
v 0.679078 0.213891 -0.050000
v 0.679078 0.213891 0.050000
v 0.660148 0.174815 -0.050000
v 0.660148 0.174815 0.050000
v 0.636190 0.138295 -0.050000
v 0.636190 0.138295 0.050000
v 0.607375 0.104875 -0.050000
v 0.607375 0.104875 0.050000
v 0.573872 0.075101 -0.050000
v 0.573872 0.075101 0.050000
v 0.535852 0.049519 -0.050000
v 0.535852 0.049519 0.050000
v 0.493484 0.028672 -0.050000
v 0.493484 0.028672 0.050000
v 0.446940 0.013106 -0.050000
v 0.446940 0.013106 0.050000
v 0.396388 0.003367 -0.050000
v 0.396388 0.003367 0.050000
v 0.342000 -0.000000 -0.050000
v 0.342000 0.000000 0.050000
v 0.076000 -0.000000 -0.050000
v 0.076000 0.000000 0.050000
v 0.076000 0.682000 -0.050000
v 0.076000 0.682000 0.050000
v 0.330000 0.088000 -0.050000
v 0.330000 0.088000 0.050000
v 0.382007 0.091374 -0.050000
v 0.382007 0.091374 0.050000
v 0.427306 0.100907 -0.050000
v 0.427306 0.100907 0.050000
v 0.466313 0.115719 -0.050000
v 0.466313 0.115719 0.050000
v 0.499444 0.134926 -0.050000
v 0.499444 0.134926 0.050000
v 0.527118 0.157647 -0.050000
v 0.527118 0.157647 0.050000
v 0.549750 0.183000 -0.050000
v 0.549750 0.183000 0.050000
v 0.567757 0.210103 -0.050000
v 0.567757 0.210103 0.050000
v 0.581556 0.238074 -0.050000
v 0.581556 0.238074 0.050000
v 0.591563 0.266031 -0.050000
v 0.591563 0.266031 0.050000
v 0.598194 0.293093 -0.050000
v 0.598194 0.293093 0.050000
v 0.601868 0.318376 -0.050000
v 0.601868 0.318376 0.050000
v 0.603000 0.341000 -0.050000
v 0.603000 0.341000 0.050000
v 0.601178 0.374758 -0.050000
v 0.601178 0.374758 0.050000
v 0.595671 0.407310 -0.050000
v 0.595671 0.407310 0.050000
v 0.586422 0.438328 -0.050000
v 0.586422 0.438328 0.050000
v 0.573370 0.467481 -0.050000
v 0.573370 0.467481 0.050000
v 0.556458 0.494440 -0.050000
v 0.556458 0.494440 0.050000
v 0.535625 0.518875 -0.050000
v 0.535625 0.518875 0.050000
v 0.510813 0.540455 -0.050000
v 0.510813 0.540455 0.050000
v 0.481963 0.558852 -0.050000
v 0.481963 0.558852 0.050000
v 0.449016 0.573734 -0.050000
v 0.449016 0.573734 0.050000
v 0.411912 0.584773 -0.050000
v 0.411912 0.584773 0.050000
v 0.370593 0.591638 -0.050000
v 0.370593 0.591638 0.050000
v 0.325000 0.594000 -0.050000
v 0.325000 0.594000 0.050000
v 0.174000 0.594000 -0.050000
v 0.174000 0.594000 0.050000
v 0.174000 0.088000 -0.050000
v 0.174000 0.088000 0.050000
vn 0.000000 0.000000 1.000000
vn 0.000000 -0.000000 -1.000000
vn 0.030200 0.999500 0.000000
vn 0.124900 0.992200 0.000000
vn 0.256200 0.966600 0.000000
vn 0.389500 0.921000 0.000000
vn 0.518200 0.855200 0.000000
vn 0.636300 0.771500 0.000000
vn 0.738900 0.673900 0.000000
vn 0.823600 0.567100 0.000000
vn 0.890200 0.455600 0.000000
vn 0.939700 0.342100 0.000000
vn 0.973600 0.228300 0.000000
vn 0.993400 0.114500 0.000000
vn 1.000000 -0.003700 0.000000
vn 0.991600 -0.129100 0.000000
vn 0.966800 -0.255500 0.000000
vn 0.926100 -0.377300 0.000000
vn 0.869900 -0.493300 0.000000
vn 0.798500 -0.602100 0.000000
vn 0.712400 -0.701800 0.000000
vn 0.612600 -0.790400 0.000000
vn 0.501000 -0.865400 0.000000
vn 0.380200 -0.924900 0.000000
vn 0.253700 -0.967300 0.000000
vn 0.125700 -0.992100 0.000000
vn 0.030900 -0.999500 0.000000
vn -0.707100 -0.707100 0.000000
vn -0.707100 0.707100 0.000000
vn -0.032400 0.999500 -0.000000
vn -0.135700 0.990800 -0.000000
vn -0.281300 0.959600 -0.000000
vn -0.429700 0.903000 -0.000000
vn -0.569900 0.821700 0.000000
vn -0.692400 0.721600 0.000000
vn -0.791500 0.611200 0.000000
vn -0.866600 0.498900 0.000000
vn -0.920700 0.390300 0.000000
vn -0.957700 0.287900 0.000000
vn -0.981600 0.191100 0.000000
vn -0.995300 0.097000 0.000000
vn -1.000000 -0.002000 0.000000
vn -0.993900 -0.110500 0.000000
vn -0.974000 -0.226700 0.000000
vn -0.937500 -0.347900 0.000000
vn -0.882000 -0.471200 0.000000
vn -0.806200 -0.591700 0.000000
vn -0.710600 -0.703600 0.000000
vn -0.598600 -0.801000 0.000000
vn -0.475900 -0.879500 0.000000
vn -0.349200 -0.937000 0.000000
vn -0.225000 -0.974400 0.000000
vn -0.108000 -0.994200 0.000000
vn -0.025900 -0.999700 0.000000
vn 0.707100 -0.707100 0.000000
vn 0.707100 0.707100 -0.000000
usemtl None
s off
f 26//1 53//1 27//1
f 53//1 1//1 27//1
f 53//1 2//1 1//1
f 53//1 3//1 2//1
f 53//1 4//1 3//1
f 53//1 5//1 4//1
f 53//1 6//1 5//1
f 53//1 52//1 6//1
f 52//1 51//1 6//1
f 51//1 7//1 6//1
f 26//1 54//1 53//1
f 50//1 7//1 51//1
f 49//1 7//1 50//1
f 48//1 7//1 49//1
f 48//1 8//1 7//1
f 47//1 8//1 48//1
f 46//1 8//1 47//1
f 46//1 9//1 8//1
f 45//1 9//1 46//1
f 45//1 10//1 9//1
f 44//1 10//1 45//1
f 43//1 10//1 44//1
f 43//1 11//1 10//1
f 42//1 11//1 43//1
f 42//1 12//1 11//1
f 41//1 12//1 42//1
f 41//1 13//1 12//1
f 40//1 13//1 41//1
f 39//1 13//1 40//1
f 39//1 14//1 13//1
f 38//1 14//1 39//1
f 38//1 15//1 14//1
f 37//1 15//1 38//1
f 36//1 15//1 37//1
f 36//1 16//1 15//1
f 35//1 16//1 36//1
f 35//1 17//1 16//1
f 34//1 17//1 35//1
f 33//1 17//1 34//1
f 33//1 18//1 17//1
f 32//1 18//1 33//1
f 32//1 19//1 18//1
f 31//1 19//1 32//1
f 30//1 19//1 31//1
f 30//1 20//1 19//1
f 29//1 20//1 30//1
f 28//1 20//1 29//1
f 26//1 28//1 54//1
f 26//1 20//1 28//1
f 26//1 21//1 20//1
f 26//1 22//1 21//1
f 26//1 23//1 22//1
f 26//1 24//1 23//1
f 26//1 25//1 24//1
f 107//2 80//2 81//2
f 55//2 107//2 81//2
f 56//2 107//2 55//2
f 57//2 107//2 56//2
f 58//2 107//2 57//2
f 59//2 107//2 58//2
f 60//2 107//2 59//2
f 106//2 107//2 60//2
f 105//2 106//2 60//2
f 61//2 105//2 60//2
f 108//2 80//2 107//2
f 61//2 104//2 105//2
f 61//2 103//2 104//2
f 61//2 102//2 103//2
f 62//2 102//2 61//2
f 62//2 101//2 102//2
f 62//2 100//2 101//2
f 63//2 100//2 62//2
f 63//2 99//2 100//2
f 64//2 99//2 63//2
f 64//2 98//2 99//2
f 64//2 97//2 98//2
f 65//2 97//2 64//2
f 65//2 96//2 97//2
f 66//2 96//2 65//2
f 66//2 95//2 96//2
f 67//2 95//2 66//2
f 67//2 94//2 95//2
f 67//2 93//2 94//2
f 68//2 93//2 67//2
f 68//2 92//2 93//2
f 69//2 92//2 68//2
f 69//2 91//2 92//2
f 69//2 90//2 91//2
f 70//2 90//2 69//2
f 70//2 89//2 90//2
f 71//2 89//2 70//2
f 71//2 88//2 89//2
f 71//2 87//2 88//2
f 72//2 87//2 71//2
f 72//2 86//2 87//2
f 73//2 86//2 72//2
f 73//2 85//2 86//2
f 73//2 84//2 85//2
f 74//2 84//2 73//2
f 74//2 83//2 84//2
f 74//2 82//2 83//2
f 82//2 80//2 108//2
f 74//2 80//2 82//2
f 75//2 80//2 74//2
f 76//2 80//2 75//2
f 77//2 80//2 76//2
f 78//2 80//2 77//2
f 79//2 80//2 78//2
s 1
f 110//3 112//4 111//4 109//3
f 112//4 114//5 113//5 111//4
f 114//5 116//6 115//6 113//5
f 116//6 118//7 117//7 115//6
f 118//7 120//8 119//8 117//7
f 120//8 122//9 121//9 119//8
f 122//9 124//10 123//10 121//9
f 124//10 126//11 125//11 123//10
f 126//11 128//12 127//12 125//11
f 128//12 130//13 129//13 127//12
f 130//13 132//14 131//14 129//13
f 132//14 134//15 133//15 131//14
f 134//15 136//16 135//16 133//15
f 136//16 138//17 137//17 135//16
f 138//17 140//18 139//18 137//17
f 140//18 142//19 141//19 139//18
f 142//19 144//20 143//20 141//19
f 144//20 146//21 145//21 143//20
f 146//21 148//22 147//22 145//21
f 148//22 150//23 149//23 147//22
f 150//23 152//24 151//24 149//23
f 152//24 154//25 153//25 151//24
f 154//25 156//26 155//26 153//25
f 156//26 158//27 157//27 155//26
f 158//27 160//28 159//28 157//27
f 160//28 162//29 161//29 159//28
f 162//29 110//3 109//3 161//29
f 164//30 166//31 165//31 163//30
f 166//31 168//32 167//32 165//31
f 168//32 170//33 169//33 167//32
f 170//33 172//34 171//34 169//33
f 172//34 174//35 173//35 171//34
f 174//35 176//36 175//36 173//35
f 176//36 178//37 177//37 175//36
f 178//37 180//38 179//38 177//37
f 180//38 182//39 181//39 179//38
f 182//39 184//40 183//40 181//39
f 184//40 186//41 185//41 183//40
f 186//41 188//42 187//42 185//41
f 188//42 190//43 189//43 187//42
f 190//43 192//44 191//44 189//43
f 192//44 194//45 193//45 191//44
f 194//45 196//46 195//46 193//45
f 196//46 198//47 197//47 195//46
f 198//47 200//48 199//48 197//47
f 200//48 202//49 201//49 199//48
f 202//49 204//50 203//50 201//49
f 204//50 206//51 205//51 203//50
f 206//51 208//52 207//52 205//51
f 208//52 210//53 209//53 207//52
f 210//53 212//54 211//54 209//53
f 212//54 214//55 213//55 211//54
f 214//55 216//56 215//56 213//55
f 216//56 164//30 163//30 215//56
